<svg xmlns="http://www.w3.org/2000/svg" xmlns:xlink="http://www.w3.org/1999/xlink" viewBox="0 0 1051.81 531.05">
  <defs>
    <linearGradient id="a" x1="342.99" y1="308.5" x2="804.45" y2="308.5" gradientUnits="userSpaceOnUse">
      <stop offset="0" stop-color="#7fffd4"/>
      <stop offset="1" stop-color="#00ff7f"/>
    </linearGradient>
    <linearGradient id="b" x1="-4.52" y1="265.71" x2="1057.61" y2="265.71" xlink:href="#a"/>
    <linearGradient id="c" x1="-0.27" y1="252.43" x2="1050.2" y2="252.43" xlink:href="#a"/>
    <linearGradient id="d" x1="-2.83" y1="265.72" x2="1049.61" y2="265.72" xlink:href="#a"/>
    <linearGradient id="e" x1="4.17" y1="318.9" x2="1051.6" y2="318.9" xlink:href="#a"/>
    <linearGradient id="f" x1="0" y1="266.06" x2="1059.61" y2="266.06" xlink:href="#a"/>
  </defs>
  <g>
    <path d="M676.88,104.69a127.37,127.37,0,0,0-103.16,52.56,127.55,127.55,0,0,0-230.73,75c0,107.2,230.73,280,230.73,280s230.73-172.85,230.73-280A127.58,127.58,0,0,0,676.88,104.69ZM573.38,502.12S353.79,325.87,353.79,237.73c0-70.44,49.48-125.19,121.41-125.19,35.4,0,76.11,26.05,98.18,56.33,22.08-30.28,64.55-56.33,98.19-56.33,70.7,0,123.7,50.66,123.7,124.91C795.27,334.54,573.38,502.12,573.38,502.12Z" style="fill: url(#a)"/>
    <circle cx="215.19" cy="265.71" r="43.71" style="fill: url(#b)"/>
    <circle cx="878.08" cy="43.71" r="43.71" style="fill: #00ff7f"/>
    <line x1="678.16" y1="302.38" x2="678.16" y2="306.68" style="fill: none"/>
    <polygon points="674.81 268.72 661.36 268.72 642.08 223.24 593.58 337.5 576.53 337.5 509.7 179.85 471.18 270.59 457.73 270.59 501.54 167.37 517.85 167.37 585.06 325.89 634.48 209.43 649.67 209.43 674.81 268.72" style="fill: url(#c)"/>
    <path d="M453.74,227.78l-19.59,42.81v33.07H305.58a24.33,24.33,0,0,1-24.41-24.1V251.87a24.32,24.32,0,0,1,24.41-24.09Z" style="fill: url(#d)"/>
    <path d="M1051.81,235.78v75.87H924.15a23.69,23.69,0,0,1-8.28-1.48V528H840V306.5a27.75,27.75,0,0,1-3,.16h-142v-39L678.17,231h16.74v-.24H837a27.75,27.75,0,0,1,3,.16V135.66c0-14.2,10.84-25.82,24.09-25.82h27.69c13.25,0,24.09,11.62,24.09,25.82v101.6a23.69,23.69,0,0,1,8.28-1.48Z" style="fill: url(#e)"/>
    <path d="M191.69,125.87C117.73,160.32,88,257,119.21,330.33q.82,1.92,1.68,3.81c9.5,20.72,23.88,40.21,41.47,54.81,18.21,15.11,42.56,24.37,64.77,31.71s45,9.45,68,10.05V112.85C260.05,107.44,224,110.83,191.69,125.87Z" style="fill: none"/>
    <path d="M395.92,431V531h-109v-.05C185.83,534,82.79,486.4,31.25,393.32-54.53,238.37,45.69,38.66,217.63,6.49a301.11,301.11,0,0,1,77.56-4.68v111c-35.13-5.42-71.21-2-103.5,13C117.73,160.32,88,257,119.22,330.33q.81,1.92,1.68,3.81c9.5,20.72,23.88,40.21,41.47,54.81,18.21,15.11,42.56,24.37,64.77,31.72s45,9.44,68.05,10l6.42.14c4.83.07,9.67.09,14.51.1Q356,431,395.92,431Z" style="fill: url(#f)"/>
  </g>
</svg>
